<?xml version="1.0" encoding="UTF-8"?>
<svg version="1.1" xmlns="http://www.w3.org/2000/svg" width="420" height="576">
<path d="M0 0 C138.6 0 277.2 0 420 0 C420 190.08 420 380.16 420 576 C281.4 576 142.8 576 0 576 C0 385.92 0 195.84 0 0 Z " fill="#020203" transform="translate(0,0)"/>
<path d="M0 0 C138.6 0 277.2 0 420 0 C420 190.08 420 380.16 420 576 C281.4 576 142.8 576 0 576 C0 385.92 0 195.84 0 0 Z M124 16 C124 22.27 124 28.54 124 35 C112.45 35 100.9 35 89 35 C89 40.61 89 46.22 89 52 C83.39 52 77.78 52 72 52 C72 63.88 72 75.76 72 88 C65.73 88 59.46 88 53 88 C53 110.77 53 133.54 53 157 C59.27 157 65.54 157 72 157 C72 163.27 72 169.54 72 176 C65.73 176 59.46 176 53 176 C52.97535929 183.38728591 52.9571684 190.77454812 52.94506836 198.16186523 C52.94002637 200.67716895 52.93319297 203.19246972 52.92456055 205.70776367 C52.91248906 209.31429775 52.90677051 212.92079323 52.90234375 216.52734375 C52.89718246 217.65961899 52.89202118 218.79189423 52.88670349 219.95848083 C52.88662796 220.99948441 52.88655243 222.04048798 52.88647461 223.11303711 C52.884254 224.03459091 52.88203339 224.95614471 52.87974548 225.90562439 C52.7662802 227.98808362 52.7662802 227.98808362 54 229 C55.34267413 229.08631874 56.68974322 229.10706473 58.03515625 229.09765625 C58.84404297 229.09443359 59.65292969 229.09121094 60.48632812 229.08789062 C61.33646484 229.07951172 62.18660156 229.07113281 63.0625 229.0625 C63.91650391 229.05798828 64.77050781 229.05347656 65.65039062 229.04882812 C67.76695663 229.03700373 69.88348685 229.01906769 72 229 C72 234.28 72 239.56 72 245 C65.73 245 59.46 245 53 245 C53 251.27 53 257.54 53 264 C47.72 264 42.44 264 37 264 C37 269.61 37 275.22 37 281 C30.73 281 24.46 281 18 281 C18 292.88 18 304.76 18 317 C12.39 317 6.78 317 1 317 C1 334.49 1 351.98 1 370 C6.28 370 11.56 370 17 370 C17 375.28 17 380.56 17 386 C23.27 386 29.54 386 36 386 C35.9375 394.9375 35.9375 394.9375 35.90991211 397.75756836 C35.90741455 398.48596924 35.90491699 399.21437012 35.90234375 399.96484375 C35.89710693 400.7137085 35.89187012 401.46257324 35.88647461 402.23413086 C35.80658248 404.02667739 35.80658248 404.02667739 37 405 C39.69654854 405.07319621 42.36691458 405.09242537 45.0625 405.0625 C46.20041992 405.05573242 46.20041992 405.05573242 47.36132812 405.04882812 C49.24091871 405.0370068 51.12046899 405.01907078 53 405 C52.98839844 406.14339844 52.97679687 407.28679687 52.96484375 408.46484375 C52.95546712 409.95572754 52.94636679 411.44661309 52.9375 412.9375 C52.92493164 414.06961914 52.92493164 414.06961914 52.91210938 415.22460938 C52.90347559 417.14994313 52.94775667 419.07535581 53 421 C54.15668501 422.38421065 54.15668501 422.38421065 57.32641602 422.11352539 C58.80225556 422.11336629 60.27810069 422.10767314 61.75390625 422.09765625 C62.52935287 422.0962413 63.3047995 422.09482635 64.10374451 422.09336853 C66.59003494 422.08775345 69.0762366 422.07519846 71.5625 422.0625 C73.24413933 422.05748694 74.92578006 422.0529237 76.60742188 422.04882812 C80.73834329 422.03862832 84.86907182 422.01905605 89 422 C89 427.28 89 432.56 89 438 C83.39 438 77.78 438 72 438 C72 450.21 72 462.42 72 475 C77.28 475 82.56 475 88 475 C88 479.95 88 484.9 88 490 C76.45 490 64.9 490 53 490 C52.97709104 495.10869811 52.95716399 500.21721926 52.94506836 505.32592773 C52.94002796 507.06519168 52.9331957 508.80445136 52.92456055 510.54370117 C52.91248208 513.03825937 52.90676892 515.53276173 52.90234375 518.02734375 C52.89718246 518.80963852 52.89202118 519.59193329 52.88670349 520.39793396 C52.88650774 522.26567114 52.93800306 524.13329204 53 526 C53.97332261 527.19341752 53.97332261 527.19341752 55.76586914 527.11352539 C56.88916626 527.10567017 56.88916626 527.10567017 58.03515625 527.09765625 C58.76355713 527.09515869 59.49195801 527.09266113 60.24243164 527.09008789 C61.1730542 527.08098389 62.10367676 527.07187988 63.0625 527.0625 C66.011875 527.041875 68.96125 527.02125 72 527 C72 532.94 72 538.88 72 545 C100.71 545 129.42 545 159 545 C159 539.06 159 533.12 159 527 C170.55 527 182.1 527 194 527 C194 503.9 194 480.8 194 457 C200.27 457 206.54 457 213 457 C213 462.61 213 468.22 213 474 C218.61 474 224.22 474 230 474 C230 491.49 230 508.98 230 527 C241.55 527 253.1 527 265 527 C265 533.27 265 539.54 265 546 C276.45650367 546.02255012 287.91299271 546.04091456 299.36951351 546.05181217 C304.68865213 546.05704122 310.00777484 546.06413927 315.3269043 546.07543945 C320.45563985 546.08626755 325.58436006 546.09227667 330.71310616 546.09487724 C332.67441614 546.09673163 334.63572524 546.10035251 336.59702873 546.10573006 C339.33415447 546.11293946 342.07121597 546.11399099 344.80834961 546.11352539 C345.62761932 546.11712067 346.44688904 546.12071594 347.29098511 546.12442017 C350.94503438 546.465555 350.94503438 546.465555 354 545 C354.08631874 543.65732587 354.10706473 542.31025678 354.09765625 540.96484375 C354.09443359 540.15595703 354.09121094 539.34707031 354.08789062 538.51367188 C354.07951172 537.66353516 354.07113281 536.81339844 354.0625 535.9375 C354.05573242 534.65649414 354.05573242 534.65649414 354.04882812 533.34960938 C354.03700373 531.23304337 354.01906769 529.11651315 354 527 C359.61 527 365.22 527 371 527 C371 515.12 371 503.24 371 491 C353.51 491 336.02 491 318 491 C318 485.39 318 479.78 318 474 C323.28 474 328.56 474 334 474 C334 462.45 334 450.9 334 439 C328.72 439 323.44 439 318 439 C318 433.39 318 427.78 318 422 C329.88 422 341.76 422 354 422 C354 416.39 354 410.78 354 405 C359.61 405 365.22 405 371 405 C371 399.06 371 393.12 371 387 C376.28 387 381.56 387 387 387 C387 381.06 387 375.12 387 369 C393.27 369 399.54 369 406 369 C406 351.84 406 334.68 406 317 C399.73 317 393.46 317 387 317 C387 305.12 387 293.24 387 281 C381.39 281 375.78 281 370 281 C370 275.39 370 269.78 370 264 C364.72 264 359.44 264 354 264 C354 257.73 354 251.46 354 245 C347.73 245 341.46 245 335 245 C335 239.72 335 234.44 335 229 C340.94 229 346.88 229 353 229 C353 211.51 353 194.02 353 176 C347.06 176 341.12 176 335 176 C335 170.06 335 164.12 335 158 C343.9375 158.0625 343.9375 158.0625 346.75756836 158.09008789 C347.48596924 158.09258545 348.21437012 158.09508301 348.96484375 158.09765625 C349.7137085 158.10289307 350.46257324 158.10812988 351.23413086 158.11352539 C353.02667739 158.19341752 353.02667739 158.19341752 354 157 C354.09952293 154.85799676 354.12799679 152.71267295 354.12939453 150.56835938 C354.13114685 149.89682327 354.13289917 149.22528717 354.13470459 148.53340149 C354.1391223 146.30349172 354.13618542 144.07366064 354.1328125 141.84375 C354.13348556 140.30057764 354.13445561 138.75740539 354.13571167 137.2142334 C354.13718853 133.9759826 354.13503447 130.73775933 354.13037109 127.49951172 C354.1246738 123.33957477 354.12795287 119.17970234 354.13394356 115.01976776 C354.13754949 111.83200592 354.13641044 108.64425949 354.13381577 105.45649719 C354.13314658 103.92222588 354.13397461 102.38795318 354.13629532 100.85368347 C354.13882238 98.71296459 354.13498054 96.57235158 354.12939453 94.43164062 C354.12859894 93.21109985 354.12780334 91.99055908 354.12698364 90.73303223 C354.31149888 88.08699015 354.31149888 88.08699015 353 87 C351.65732587 86.91368126 350.31025678 86.89293527 348.96484375 86.90234375 C348.23644287 86.90484131 347.50804199 86.90733887 346.75756836 86.90991211 C345.8269458 86.91901611 344.89632324 86.92812012 343.9375 86.9375 C340.988125 86.958125 338.03875 86.97875 335 87 C335 75.45 335 63.9 335 52 C329.39 52 323.78 52 318 52 C318 46.39 318 40.78 318 35 C306.45 35 294.9 35 283 35 C283.0625 26.0625 283.0625 26.0625 283.09008789 23.24243164 C283.09258545 22.51403076 283.09508301 21.78562988 283.09765625 21.03515625 C283.10289307 20.2862915 283.10812988 19.53742676 283.11352539 18.76586914 C283.19341752 16.97332261 283.19341752 16.97332261 282 16 C279.96238813 15.90321761 277.92136288 15.87813035 275.88145447 15.87974548 C275.23539877 15.87889106 274.58934307 15.87803663 273.92370993 15.87715632 C271.74330183 15.87549976 269.56296945 15.88102571 267.38256836 15.88647461 C265.82579042 15.88675647 264.26901236 15.88659877 262.7122345 15.8860321 C258.47274796 15.88574408 254.23328946 15.89164154 249.99380946 15.89860606 C245.5681858 15.90483885 241.14256157 15.90544334 236.7169342 15.90663147 C228.33046022 15.90974501 219.9439992 15.9179587 211.55753094 15.92798096 C202.01234651 15.9391414 192.46716148 15.94465237 182.92197216 15.94967639 C163.28130733 15.9601413 143.64065493 15.97794157 124 16 Z " fill="#FDFDFD" transform="translate(0,0)"/>
<path d="M0 0 C51.81 0 103.62 0 157 0 C157 5.61 157 11.22 157 17 C168.55 17 180.1 17 192 17 C192 28.55 192 40.1 192 52 C197.61 52 203.22 52 209 52 C209 74.77 209 97.54 209 121 C203.39 121 197.78 121 192 121 C192 132.88 192 144.76 192 157 C197.61 157 203.22 157 209 157 C209 168.55 209 180.1 209 192 C197.45 192 185.9 192 174 192 C174 197.94 174 203.88 174 210 C163.11 210 152.22 210 141 210 C141 215.94 141 221.88 141 228 C99.75 228 58.5 228 16 228 C16 222.06 16 216.12 16 210 C4.45 210 -7.1 210 -19 210 C-19 204.06 -19 198.12 -19 192 C-29.89 192 -40.78 192 -52 192 C-52 180.45 -52 168.9 -52 157 C-46.72 157 -41.44 157 -36 157 C-36 145.12 -36 133.24 -36 121 C-41.28 121 -46.56 121 -52 121 C-52 98.23 -52 75.46 -52 52 C-46.39 52 -40.78 52 -35 52 C-35 40.45 -35 28.9 -35 17 C-23.45 17 -11.9 17 0 17 C0 11.39 0 5.78 0 0 Z " fill="#FCFCFC" transform="translate(125,36)"/>
<path d="M0 0 C6.27 0 12.54 0 19 0 C19 6.27 19 12.54 19 19 C24.28 19 29.56 19 35 19 C35 24.61 35 30.22 35 36 C40.61 36 46.22 36 52 36 C52 47.88 52 59.76 52 72 C58.27 72 64.54 72 71 72 C71 89.16 71 106.32 71 124 C64.73 124 58.46 124 52 124 C52 129.94 52 135.88 52 142 C46.72 142 41.44 142 36 142 C36 147.94 36 153.88 36 160 C30.39 160 24.78 160 19 160 C19 159.67 19 159.34 19 159 C24.28 159 29.56 159 35 159 C35 153.39 35 147.78 35 142 C23.78 142 12.56 142 1 142 C1 147.61 1 153.22 1 159 C0.67 159.66 0.34 160.32 0 161 C-2.97922593 161.02683987 -5.95821295 161.04676037 -8.9375 161.0625 C-9.78763672 161.07087891 -10.63777344 161.07925781 -11.51367188 161.08789062 C-12.32255859 161.09111328 -13.13144531 161.09433594 -13.96484375 161.09765625 C-14.7137085 161.10289307 -15.46257324 161.10812988 -16.23413086 161.11352539 C-18 161 -18 161 -19 160 C-19.08847743 157.47905924 -19.11527301 154.98569107 -19.09765625 152.46484375 C-19.09553383 151.33496788 -19.09553383 151.33496788 -19.09336853 150.18226624 C-19.08775376 147.7673044 -19.07519883 145.35243399 -19.0625 142.9375 C-19.0574869 141.30403779 -19.05292366 139.67057414 -19.04882812 138.03710938 C-19.03862875 134.0246757 -19.01905645 130.01244064 -19 126 C-23.95 126 -28.9 126 -34 126 C-34 142.83 -34 159.66 -34 177 C-45.88 177 -57.76 177 -70 177 C-70 147.63 -70 118.26 -70 88 C-58.78 88 -47.56 88 -36 88 C-36 82.72 -36 77.44 -36 72 C-47.22 72 -58.44 72 -70 72 C-70 65.73 -70 59.46 -70 53 C-87.16 53 -104.32 53 -122 53 C-122 58.94 -122 64.88 -122 71 C-119.62941406 70.98839844 -117.25882812 70.97679687 -114.81640625 70.96484375 C-112.52954238 70.95705304 -110.24267996 70.95097636 -107.95581055 70.94506836 C-106.36205386 70.94002843 -104.76830181 70.9331965 -103.17456055 70.92456055 C-100.88849747 70.91248001 -98.60249533 70.90676845 -96.31640625 70.90234375 C-95.59973282 70.89718246 -94.88305939 70.89202118 -94.14466858 70.88670349 C-92.42936328 70.88650737 -90.71418734 70.93807993 -89 71 C-87.29507119 72.70492881 -87.8719558 74.84534261 -87.86105347 77.11901855 C-87.86408981 78.18932312 -87.86408981 78.18932312 -87.8671875 79.28125 C-87.86623077 80.00993286 -87.86527405 80.73861572 -87.86428833 81.48937988 C-87.86360665 83.0327971 -87.86546012 84.57621717 -87.86962891 86.11962891 C-87.87497738 88.489974 -87.86968358 90.86012959 -87.86328125 93.23046875 C-87.86394203 94.72656292 -87.8652232 96.22265697 -87.8671875 97.71875 C-87.86415115 98.78905457 -87.86415115 98.78905457 -87.86105347 99.88098145 C-87.88504809 104.88504809 -87.88504809 104.88504809 -89 106 C-91.6986905 106.07325436 -94.36502556 106.09222351 -97.0625 106.0625 C-99.681875 106.041875 -102.30125 106.02125 -105 106 C-105 111.94 -105 117.88 -105 124 C-99.39 124 -93.78 124 -88 124 C-88 129.61 -88 135.22 -88 141 C-117.37 141 -146.74 141 -177 141 C-177 135.39 -177 129.78 -177 124 C-170.73 124 -164.46 124 -158 124 C-158 118.06 -158 112.12 -158 106 C-164.6 106 -171.2 106 -178 106 C-178 94.45 -178 82.9 -178 71 C-165.79 71 -153.58 71 -141 71 C-141 65.06 -141 59.12 -141 53 C-158.49 53 -175.98 53 -194 53 C-194 47.39 -194 41.78 -194 36 C-176.18 36 -158.36 36 -140 36 C-140 41.28 -140 46.56 -140 52 C-134.39 52 -128.78 52 -123 52 C-123 46.39 -123 40.78 -123 35 C-115.47029868 34.97535968 -107.94062061 34.95716859 -100.41088867 34.94506836 C-97.84708243 34.9400263 -95.28327909 34.93319286 -92.71948242 34.92456055 C-89.04344979 34.91248936 -85.36745502 34.90677058 -81.69140625 34.90234375 C-80.53725723 34.89718246 -79.38310822 34.89202118 -78.19398499 34.88670349 C-76.6024485 34.88659019 -76.6024485 34.88659019 -74.97875977 34.88647461 C-74.03944107 34.884254 -73.10012238 34.88203339 -72.13233948 34.87974548 C-70 35 -70 35 -69 36 C-68.92674832 38.86267567 -68.90761795 41.700719 -68.9375 44.5625 C-68.94201172 45.36880859 -68.94652344 46.17511719 -68.95117188 47.00585938 C-68.96299482 49.00393756 -68.98093086 51.00197783 -69 53 C-63.72 53 -58.44 53 -53 53 C-53 47.39 -53 41.78 -53 36 C-41.12 36 -29.24 36 -17 36 C-17 41.28 -17 46.56 -17 52 C-11.72 52 -6.44 52 -1 52 C-1 41.11 -1 30.22 -1 19 C5.27 19 11.54 19 18 19 C18 13.06 18 7.12 18 1 C12.06 1 6.12 1 0 1 C0 0.67 0 0.34 0 0 Z " fill="#363D47" transform="translate(335,245)"/>
<path d="M0 0 C20.58336875 -0.02311719 41.16673439 -0.0409783 61.75011349 -0.05181217 C71.30663939 -0.05697551 80.86315709 -0.06401892 90.41967773 -0.07543945 C98.74602007 -0.08538514 107.07235648 -0.09185315 115.39870459 -0.09408849 C119.81024857 -0.0953958 124.22177557 -0.09848288 128.63331413 -0.10573006 C132.78070387 -0.11248846 136.92806953 -0.11461733 141.07546425 -0.11310768 C142.6021373 -0.11338409 144.12881112 -0.11539028 145.65547943 -0.11920547 C147.73083459 -0.12413994 149.80609742 -0.12299923 151.88145447 -0.12025452 C153.62779128 -0.12163721 153.62779128 -0.12163721 155.40940762 -0.12304783 C158 0 158 0 159 1 C159.08631874 2.34267413 159.10706473 3.68974322 159.09765625 5.03515625 C159.09515869 5.76355713 159.09266113 6.49195801 159.09008789 7.24243164 C159.08098389 8.1730542 159.07187988 9.10367676 159.0625 10.0625 C159.041875 13.011875 159.02125 15.96125 159 19 C170.55 19 182.1 19 194 19 C194 24.61 194 30.22 194 36 C199.61 36 205.22 36 211 36 C211 47.55 211 59.1 211 71 C216.87883003 70.96042231 216.87883003 70.96042231 222.75756836 70.90991211 C223.48596924 70.90741455 224.21437012 70.90491699 224.96484375 70.90234375 C225.7137085 70.89710693 226.46257324 70.89187012 227.23413086 70.88647461 C229 71 229 71 230 72 C230.09952293 74.14200324 230.12799679 76.28732705 230.12939453 78.43164062 C230.13202301 79.43894478 230.13202301 79.43894478 230.13470459 80.46659851 C230.1391223 82.69650828 230.13618542 84.92633936 230.1328125 87.15625 C230.13348556 88.69942236 230.13445561 90.24259461 230.13571167 91.7857666 C230.13718853 95.0240174 230.13503447 98.26224067 230.13037109 101.50048828 C230.1246738 105.66042523 230.12795287 109.82029766 230.13394356 113.98023224 C230.13754949 117.16799408 230.13641044 120.35574051 230.13381577 123.54350281 C230.13314658 125.07777412 230.13397461 126.61204682 230.13629532 128.14631653 C230.13882238 130.28703541 230.13498054 132.42764842 230.12939453 134.56835938 C230.12820114 136.39917053 230.12820114 136.39917053 230.12698364 138.26696777 C230 141 230 141 229 142 C227.65732587 142.08631874 226.31025678 142.10706473 224.96484375 142.09765625 C224.23644287 142.09515869 223.50804199 142.09266113 222.75756836 142.09008789 C221.8269458 142.08098389 220.89632324 142.07187988 219.9375 142.0625 C215.5134375 142.0315625 215.5134375 142.0315625 211 142 C211 147.94 211 153.88 211 160 C216.94 160 222.88 160 229 160 C229 177.49 229 194.98 229 213 C223.06 213 217.12 213 211 213 C211 218.61 211 224.22 211 230 C216.94 230 222.88 230 229 230 C229 235.94 229 241.88 229 248 C222.73 248 216.46 248 210 248 C210 258.89 210 269.78 210 281 C204.72 281 199.44 281 194 281 C194 275.72 194 270.44 194 265 C182.12 265 170.24 265 158 265 C158 270.61 158 276.22 158 282 C152.72 282 147.44 282 142 282 C141.67 276.39 141.34 270.78 141 265 C123.51 264.67 106.02 264.34 88 264 C88 269.61 88 275.22 88 281 C82.39 281 76.78 281 71 281 C71 275.72 71 270.44 71 265 C53.18 265 35.36 265 17 265 C17 270.28 17 275.56 17 281 C11.72 281 6.44 281 1 281 C1 275.72 1 270.44 1 265 C-10.88 265 -22.76 265 -35 265 C-35 270.28 -35 275.56 -35 281 C-40.28 281 -45.56 281 -51 281 C-51 270.11 -51 259.22 -51 248 C-57.27 248 -63.54 248 -70 248 C-70 242.06 -70 236.12 -70 230 C-64.06 230 -58.12 230 -52 230 C-52 224.39 -52 218.78 -52 213 C-53.28777344 213.01160156 -54.57554688 213.02320313 -55.90234375 213.03515625 C-57.58072772 213.0445327 -59.25911326 213.05363305 -60.9375 213.0625 C-61.78763672 213.07087891 -62.63777344 213.07925781 -63.51367188 213.08789062 C-64.32255859 213.09111328 -65.13144531 213.09433594 -65.96484375 213.09765625 C-66.7137085 213.10289307 -67.46257324 213.10812988 -68.23413086 213.11352539 C-70 213 -70 213 -71 212 C-71.09340434 210.37325222 -71.11745171 208.74245949 -71.11352539 207.11303711 C-71.11344986 206.07203354 -71.11337433 205.03102997 -71.11329651 203.95848083 C-71.10813522 202.8262056 -71.10297394 201.69393036 -71.09765625 200.52734375 C-71.0962413 199.37456436 -71.09482635 198.22178497 -71.09336853 197.03407288 C-71.08775005 193.33518936 -71.07519442 189.63636536 -71.0625 185.9375 C-71.05748738 183.43684983 -71.05292406 180.93619871 -71.04882812 178.43554688 C-71.03777462 172.29034149 -71.0204976 166.14518085 -71 160 C-64.73 160 -58.46 160 -52 160 C-52 153.73 -52 147.46 -52 141 C-58.27 141 -64.54 141 -71 141 C-71 118.23 -71 95.46 -71 72 C-64.73 72 -58.46 72 -52 72 C-52 60.12 -52 48.24 -52 36 C-46.39 36 -40.78 36 -35 36 C-35 30.39 -35 24.78 -35 19 C-23.45 19 -11.9 19 0 19 C0 12.73 0 6.46 0 0 Z M1 20 C1 25.61 1 31.22 1 37 C-10.55 37 -22.1 37 -34 37 C-34 48.55 -34 60.1 -34 72 C-39.61 72 -45.22 72 -51 72 C-51 94.77 -51 117.54 -51 141 C-45.72 141 -40.44 141 -35 141 C-35 152.88 -35 164.76 -35 177 C-40.28 177 -45.56 177 -51 177 C-51 188.55 -51 200.1 -51 212 C-40.11 212 -29.22 212 -18 212 C-18 217.94 -18 223.88 -18 230 C-6.45 230 5.1 230 17 230 C17 235.94 17 241.88 17 248 C58.25 248 99.5 248 142 248 C142 242.06 142 236.12 142 230 C152.89 230 163.78 230 175 230 C175 224.06 175 218.12 175 212 C186.55 212 198.1 212 210 212 C210 200.45 210 188.9 210 177 C204.39 177 198.78 177 193 177 C193 165.12 193 153.24 193 141 C198.61 141 204.22 141 210 141 C210 118.23 210 95.46 210 72 C204.39 72 198.78 72 193 72 C193 60.45 193 48.9 193 37 C181.45 37 169.9 37 158 37 C158 31.39 158 25.78 158 20 C106.19 20 54.38 20 1 20 Z " fill="#020202" transform="translate(124,16)"/>
<path d="M0 0 C20.58336875 -0.02311719 41.16673439 -0.0409783 61.75011349 -0.05181217 C71.30663939 -0.05697551 80.86315709 -0.06401892 90.41967773 -0.07543945 C98.74602007 -0.08538514 107.07235648 -0.09185315 115.39870459 -0.09408849 C119.81024857 -0.0953958 124.22177557 -0.09848288 128.63331413 -0.10573006 C132.78070387 -0.11248846 136.92806953 -0.11461733 141.07546425 -0.11310768 C142.6021373 -0.11338409 144.12881112 -0.11539028 145.65547943 -0.11920547 C147.73083459 -0.12413994 149.80609742 -0.12299923 151.88145447 -0.12025452 C153.62779128 -0.12163721 153.62779128 -0.12163721 155.40940762 -0.12304783 C158 0 158 0 159 1 C159.08631874 2.34267413 159.10706473 3.68974322 159.09765625 5.03515625 C159.09515869 5.76355713 159.09266113 6.49195801 159.09008789 7.24243164 C159.08098389 8.1730542 159.07187988 9.10367676 159.0625 10.0625 C159.041875 13.011875 159.02125 15.96125 159 19 C170.55 19 182.1 19 194 19 C194 24.61 194 30.22 194 36 C199.61 36 205.22 36 211 36 C211 47.55 211 59.1 211 71 C216.87883003 70.96042231 216.87883003 70.96042231 222.75756836 70.90991211 C223.48596924 70.90741455 224.21437012 70.90491699 224.96484375 70.90234375 C225.7137085 70.89710693 226.46257324 70.89187012 227.23413086 70.88647461 C229 71 229 71 230 72 C230.09952293 74.14200324 230.12799679 76.28732705 230.12939453 78.43164062 C230.13202301 79.43894478 230.13202301 79.43894478 230.13470459 80.46659851 C230.1391223 82.69650828 230.13618542 84.92633936 230.1328125 87.15625 C230.13348556 88.69942236 230.13445561 90.24259461 230.13571167 91.7857666 C230.13718853 95.0240174 230.13503447 98.26224067 230.13037109 101.50048828 C230.1246738 105.66042523 230.12795287 109.82029766 230.13394356 113.98023224 C230.13754949 117.16799408 230.13641044 120.35574051 230.13381577 123.54350281 C230.13314658 125.07777412 230.13397461 126.61204682 230.13629532 128.14631653 C230.13882238 130.28703541 230.13498054 132.42764842 230.12939453 134.56835938 C230.12820114 136.39917053 230.12820114 136.39917053 230.12698364 138.26696777 C230 141 230 141 229 142 C227.65732587 142.08631874 226.31025678 142.10706473 224.96484375 142.09765625 C224.23644287 142.09515869 223.50804199 142.09266113 222.75756836 142.09008789 C221.8269458 142.08098389 220.89632324 142.07187988 219.9375 142.0625 C215.5134375 142.0315625 215.5134375 142.0315625 211 142 C211 147.94 211 153.88 211 160 C210.67 160 210.34 160 210 160 C210 154.06 210 148.12 210 142 C204.72 142 199.44 142 194 142 C194 153.55 194 165.1 194 177 C193.67 177 193.34 177 193 177 C193 165.12 193 153.24 193 141 C198.61 141 204.22 141 210 141 C210 118.23 210 95.46 210 72 C204.39 72 198.78 72 193 72 C193 60.45 193 48.9 193 37 C181.45 37 169.9 37 158 37 C158 31.39 158 25.78 158 20 C106.19 20 54.38 20 1 20 C1 25.61 1 31.22 1 37 C-10.55 37 -22.1 37 -34 37 C-34 48.55 -34 60.1 -34 72 C-39.61 72 -45.22 72 -51 72 C-51 94.77 -51 117.54 -51 141 C-45.72 141 -40.44 141 -35 141 C-35 152.88 -35 164.76 -35 177 C-40.28 177 -45.56 177 -51 177 C-51 188.55 -51 200.1 -51 212 C-40.11 212 -29.22 212 -18 212 C-18 217.61 -18 223.22 -18 229 C-18.33 229 -18.66 229 -19 229 C-19 223.72 -19 218.44 -19 213 C-29.56 213 -40.12 213 -51 213 C-51 218.28 -51 223.56 -51 229 C-51.33 229 -51.66 229 -52 229 C-52 223.72 -52 218.44 -52 213 C-53.28777344 213.01160156 -54.57554688 213.02320313 -55.90234375 213.03515625 C-57.58072772 213.0445327 -59.25911326 213.05363305 -60.9375 213.0625 C-61.78763672 213.07087891 -62.63777344 213.07925781 -63.51367188 213.08789062 C-64.32255859 213.09111328 -65.13144531 213.09433594 -65.96484375 213.09765625 C-66.7137085 213.10289307 -67.46257324 213.10812988 -68.23413086 213.11352539 C-70 213 -70 213 -71 212 C-71.09340434 210.37325222 -71.11745171 208.74245949 -71.11352539 207.11303711 C-71.11344986 206.07203354 -71.11337433 205.03102997 -71.11329651 203.95848083 C-71.10813522 202.8262056 -71.10297394 201.69393036 -71.09765625 200.52734375 C-71.0962413 199.37456436 -71.09482635 198.22178497 -71.09336853 197.03407288 C-71.08775005 193.33518936 -71.07519442 189.63636536 -71.0625 185.9375 C-71.05748738 183.43684983 -71.05292406 180.93619871 -71.04882812 178.43554688 C-71.03777462 172.29034149 -71.0204976 166.14518085 -71 160 C-64.73 160 -58.46 160 -52 160 C-52 153.73 -52 147.46 -52 141 C-58.27 141 -64.54 141 -71 141 C-71 118.23 -71 95.46 -71 72 C-64.73 72 -58.46 72 -52 72 C-52 60.12 -52 48.24 -52 36 C-46.39 36 -40.78 36 -35 36 C-35 30.39 -35 24.78 -35 19 C-23.45 19 -11.9 19 0 19 C0 12.73 0 6.46 0 0 Z " fill="#5F5F5F" transform="translate(124,16)"/>
<path d="M0 0 C6.27 0 12.54 0 19 0 C19 5.61 19 11.22 19 17 C70.81 17 122.62 17 176 17 C176 11.39 176 5.78 176 0 C181.61 0 187.22 0 193 0 C193 11.22 193 22.44 193 34 C187.39 34 181.78 34 176 34 C176 39.94 176 45.88 176 52 C170.72 52 165.44 52 160 52 C160 46.06 160 40.12 160 34 C153.73 34 147.46 34 141 34 C141 40.27 141 46.54 141 53 C146.94 53 152.88 53 159 53 C159 58.28 159 63.56 159 69 C118.41 69 77.82 69 36 69 C36 63.72 36 58.44 36 53 C41.28 53 46.56 53 52 53 C52 46.4 52 39.8 52 33 C46.39 33 40.78 33 35 33 C35 39.27 35 45.54 35 52 C29.39 52 23.78 52 18 52 C18 46.06 18 40.12 18 34 C12.06 34 6.12 34 0 34 C0 22.78 0 11.56 0 0 Z " fill="#060606" transform="translate(106,176)"/>
<path d="M0 0 C17.49 0 34.98 0 53 0 C53 5.94 53 11.88 53 18 C35.84 18 18.68 18 1 18 C1 23.94 1 29.88 1 36 C3.37058594 35.98839844 5.74117188 35.97679687 8.18359375 35.96484375 C10.47045762 35.95705304 12.75732004 35.95097636 15.04418945 35.94506836 C16.63794614 35.94002843 18.23169819 35.9331965 19.82543945 35.92456055 C22.11150253 35.91248001 24.39750467 35.90676845 26.68359375 35.90234375 C27.40026718 35.89718246 28.11694061 35.89202118 28.85533142 35.88670349 C30.57063672 35.88650737 32.28581266 35.93807993 34 36 C35.70492881 37.70492881 35.1280442 39.84534261 35.13894653 42.11901855 C35.13591019 43.18932312 35.13591019 43.18932312 35.1328125 44.28125 C35.13376923 45.00993286 35.13472595 45.73861572 35.13571167 46.48937988 C35.13639335 48.0327971 35.13453988 49.57621717 35.13037109 51.11962891 C35.12502262 53.489974 35.13031642 55.86012959 35.13671875 58.23046875 C35.13605797 59.72656292 35.1347768 61.22265697 35.1328125 62.71875 C35.13483673 63.43228638 35.13686096 64.14582275 35.13894653 64.88098145 C35.11495191 69.88504809 35.11495191 69.88504809 34 71 C31.3013095 71.07325436 28.63497444 71.09222351 25.9375 71.0625 C23.318125 71.041875 20.69875 71.02125 18 71 C18 76.94 18 82.88 18 89 C23.61 89 29.22 89 35 89 C35 94.61 35 100.22 35 106 C5.63 106 -23.74 106 -54 106 C-54 100.39 -54 94.78 -54 89 C-47.73 89 -41.46 89 -35 89 C-35 83.06 -35 77.12 -35 71 C-41.6 71 -48.2 71 -55 71 C-55 59.45 -55 47.9 -55 36 C-42.79 36 -30.58 36 -18 36 C-18 30.06 -18 24.12 -18 18 C-35.49 18 -52.98 18 -71 18 C-71 12.39 -71 6.78 -71 1 C-53.18 1 -35.36 1 -17 1 C-17 6.28 -17 11.56 -17 17 C-11.39 17 -5.78 17 0 17 C0 11.39 0 5.78 0 0 Z " fill="#F9F9F9" transform="translate(212,280)"/>
<path d="M0 0 C5.28 0 10.56 0 16 0 C16 10.89 16 21.78 16 33 C21.94 33 27.88 33 34 33 C34 38.94 34 44.88 34 51 C22.12 51 10.24 51 -2 51 C-1.505 59.415 -1.505 59.415 -1 68 C16.325 68.495 16.325 68.495 34 69 C34 74.61 34 80.22 34 86 C39.28 86 44.56 86 50 86 C50 91.61 50 97.22 50 103 C44.72 103 39.44 103 34 103 C34 115.21 34 127.42 34 140 C28.39 140 22.78 140 17 140 C17 133.73 17 127.46 17 121 C5.45 121 -6.1 121 -18 121 C-18 126.94 -18 132.88 -18 139 C-18.33 139 -18.66 139 -19 139 C-19 133.06 -19 127.12 -19 121 C-25.27 121 -31.54 121 -38 121 C-38 115.72 -38 110.44 -38 105 C-43.28 105 -48.56 105 -54 105 C-54 104.67 -54 104.34 -54 104 C-48.39 104 -42.78 104 -37 104 C-37 109.28 -37 114.56 -37 120 C-30.73 120 -24.46 120 -18 120 C-18 114.72 -18 109.44 -18 104 C-23.94 104 -29.88 104 -36 104 C-36 87.17 -36 70.34 -36 53 C-30.06 52.67 -24.12 52.34 -18 52 C-17.67 46.06 -17.34 40.12 -17 34 C-11.39 34 -5.78 34 0 34 C0 22.78 0 11.56 0 0 Z " fill="#336CC8" transform="translate(55,265)"/>
<path d="M0 0 C5.94 0 11.88 0 18 0 C18 11.22 18 22.44 18 34 C23.28 34 28.56 34 34 34 C34.495 42.91 34.495 42.91 35 52 C40.28 52.33 45.56 52.66 51 53 C51 69.5 51 86 51 103 C45.72 103 40.44 103 35 103 C35 108.61 35 114.22 35 120 C40.61 120.33 46.22 120.66 52 121 C52 121.33 52 121.66 52 122 C46.72 122 41.44 122 36 122 C36 127.94 36 133.88 36 140 C30.39 140 24.78 140 19 140 C19 139.67 19 139.34 19 139 C24.28 139 29.56 139 35 139 C35 133.06 35 127.12 35 121 C23.12 121 11.24 121 -1 121 C-1 127.27 -1 133.54 -1 140 C-6.28 140 -11.56 140 -17 140 C-17 127.79 -17 115.58 -17 103 C-22.94 103 -28.88 103 -35 103 C-35 97.39 -35 91.78 -35 86 C-29.06 86 -23.12 86 -17 86 C-17 80.39 -17 74.78 -17 69 C0.325 68.505 0.325 68.505 18 68 C18.33 62.39 18.66 56.78 19 51 C7.12 51 -4.76 51 -17 51 C-17 45.06 -17 39.12 -17 33 C-11.39 33 -5.78 33 0 33 C0 22.11 0 11.22 0 0 Z " fill="#346DC8" transform="translate(335,265)"/>
<path d="M0 0 C41.25 0 82.5 0 125 0 C125 11.88 125 23.76 125 36 C119.39 36 113.78 36 108 36 C108.01160156 37.28777344 108.02320313 38.57554687 108.03515625 39.90234375 C108.0445327 41.58072772 108.05363305 43.25911326 108.0625 44.9375 C108.07087891 45.78763672 108.07925781 46.63777344 108.08789062 47.51367188 C108.09111328 48.32255859 108.09433594 49.13144531 108.09765625 49.96484375 C108.10289307 50.7137085 108.10812988 51.46257324 108.11352539 52.23413086 C108 54 108 54 107 55 C104.2611158 55.09516211 101.54752059 55.12554594 98.80834961 55.11352539 C97.94988937 55.11367142 97.09142914 55.11381744 96.20695496 55.1139679 C93.35539262 55.11326847 90.50389475 55.1054747 87.65234375 55.09765625 C85.68079158 55.09579218 83.70923895 55.09436822 81.73768616 55.09336853 C76.53773733 55.08954251 71.33781625 55.07971152 66.13787842 55.06866455 C60.83606339 55.05845222 55.5342439 55.05387129 50.23242188 55.04882812 C39.82160041 55.03808932 29.41080685 55.02049185 19 55 C19 48.73 19 42.46 19 36 C7.45 36 -4.1 36 -16 36 C-16 35.67 -16 35.34 -16 35 C-4.45 35 7.1 35 19 35 C19 29.72 19 24.44 19 19 C12.73 19 6.46 19 0 19 C0 12.73 0 6.46 0 0 Z " fill="#FAFAFA" transform="translate(246,491)"/>
<path d="M0 0 C6.27 0 12.54 0 19 0 C19 0.33 19 0.66 19 1 C13.06 1 7.12 1 1 1 C1 6.94 1 12.88 1 19 C7.27 19 13.54 19 20 19 C20 29.89 20 40.78 20 52 C25.28 52 30.56 52 36 52 C36 46.72 36 41.44 36 36 C47.88 36 59.76 36 72 36 C72 41.28 72 46.56 72 52 C77.28 52 82.56 52 88 52 C88 58.6 88 65.2 88 72 C76.45 72 64.9 72 53 72 C53 77.28 53 82.56 53 88 C47.39 88 41.78 88 36 88 C36 82.72 36 77.44 36 72 C24.45 72 12.9 72 1 72 C1 77.28 1 82.56 1 88 C0.67 88 0.34 88 0 88 C0 82.39 0 76.78 0 71 C11.88 71 23.76 71 36 71 C36 65.06 36 59.12 36 53 C30.06 53 24.12 53 18 53 C18 42.11 18 31.22 18 20 C12.72 20 7.44 20 2 20 C2 31.22 2 42.44 2 54 C-3.61 54 -9.22 54 -15 54 C-14.98839844 55.28777344 -14.97679687 56.57554687 -14.96484375 57.90234375 C-14.9554673 59.58072772 -14.94636695 61.25911326 -14.9375 62.9375 C-14.92912109 63.78763672 -14.92074219 64.63777344 -14.91210938 65.51367188 C-14.90888672 66.32255859 -14.90566406 67.13144531 -14.90234375 67.96484375 C-14.89710693 68.7137085 -14.89187012 69.46257324 -14.88647461 70.23413086 C-15 72 -15 72 -16 73 C-21.94 73 -27.88 73 -34 73 C-34 89.83 -34 106.66 -34 124 C-28.06 124 -22.12 124 -16 124 C-16 129.28 -16 134.56 -16 140 C-22.27 140 -28.54 140 -35 140 C-35 134.72 -35 129.44 -35 124 C-40.61 124 -46.22 124 -52 124 C-52 106.84 -52 89.68 -52 72 C-46.39 72 -40.78 72 -35 72 C-35 60.12 -35 48.24 -35 36 C-28.73 36 -22.46 36 -16 36 C-16 30.39 -16 24.78 -16 19 C-10.72 19 -5.44 19 0 19 C0 12.73 0 6.46 0 0 Z " fill="#6C6C6C" transform="translate(53,245)"/>
<path d="M0 0 C51.81 0 103.62 0 157 0 C157 5.94 157 11.88 157 18 C105.19 18 53.38 18 0 18 C0 12.06 0 6.12 0 0 Z " fill="#010101" transform="translate(125,17)"/>
<path d="M0 0 C17.49 0 34.98 0 53 0 C53 17.16 53 34.32 53 52 C35.51 52 18.02 52 0 52 C0 34.84 0 17.68 0 0 Z " fill="#040404" transform="translate(106,105)"/>
<path d="M0 0 C17.49 0 34.98 0 53 0 C53 5.94 53 11.88 53 18 C35.84 18 18.68 18 1 18 C1 23.94 1 29.88 1 36 C11.89 36 22.78 36 34 36 C34 36.33 34 36.66 34 37 C23.11 37 12.22 37 1 37 C1 42.61 1 48.22 1 54 C-5.27 54 -11.54 54 -18 54 C-18 48.39 -18 42.78 -18 37 C-29.55 37 -41.1 37 -53 37 C-53 47.89 -53 58.78 -53 70 C-46.73 70 -40.46 70 -34 70 C-34 76.27 -34 82.54 -34 89 C-34.33 89 -34.66 89 -35 89 C-35 83.06 -35 77.12 -35 71 C-41.6 71 -48.2 71 -55 71 C-55 59.45 -55 47.9 -55 36 C-42.79 36 -30.58 36 -18 36 C-18 30.06 -18 24.12 -18 18 C-35.49 18 -52.98 18 -71 18 C-71 12.39 -71 6.78 -71 1 C-53.18 1 -35.36 1 -17 1 C-17 6.28 -17 11.56 -17 17 C-11.39 17 -5.78 17 0 17 C0 11.39 0 5.78 0 0 Z " fill="#686868" transform="translate(212,280)"/>
<path d="M0 0 C17.16 0 34.32 0 52 0 C52 17.16 52 34.32 52 52 C34.84 52 17.68 52 0 52 C0 34.84 0 17.68 0 0 Z " fill="#020202" transform="translate(247,105)"/>
<path d="M0 0 C23.43 0 46.86 0 71 0 C71 5.94 71 11.88 71 18 C64.73 18 58.46 18 52 18 C52 23.61 52 29.22 52 35 C23.95 35 -4.1 35 -33 35 C-33 29.72 -33 24.44 -33 19 C-22.11 19 -11.22 19 0 19 C0 12.73 0 6.46 0 0 Z " fill="#FCFCFC" transform="translate(106,491)"/>
<path d="M0 0 C11.55 0 23.1 0 35 0 C35 28.71 35 57.42 35 87 C23.78 87 12.56 87 1 87 C1 70.17 1 53.34 1 36 C6.94 36 12.88 36 19 36 C19 29.4 19 22.8 19 16 C12.73 16 6.46 16 0 16 C0 10.72 0 5.44 0 0 Z " fill="#336DCA" transform="translate(106,334)"/>
<path d="M0 0 C10.89 0 21.78 0 33 0 C33 5.28 33 10.56 33 16 C27.39 16 21.78 16 16 16 C16 22.6 16 29.2 16 36 C21.28 36 26.56 36 32 36 C32 52.83 32 69.66 32 87 C21.44 87 10.88 87 0 87 C0 58.29 0 29.58 0 0 Z " fill="#346CC7" transform="translate(266,334)"/>
<path d="M0 0 C40.59 0 81.18 0 123 0 C123 5.94 123 11.88 123 18 C82.41 18 41.82 18 0 18 C0 12.06 0 6.12 0 0 Z " fill="#FCFCFC" transform="translate(142,246)"/>
<path d="M0 0 C18.15 0 36.3 0 55 0 C55 5.61 55 11.22 55 17 C54 18 54 18 50.67358398 18.11352539 C49.19774444 18.11336629 47.72189931 18.10767314 46.24609375 18.09765625 C45.47064713 18.0962413 44.6952005 18.09482635 43.89625549 18.09336853 C41.40996506 18.08775345 38.9237634 18.07519846 36.4375 18.0625 C34.75586067 18.05748694 33.07421994 18.0529237 31.39257812 18.04882812 C27.26165671 18.03862832 23.13092818 18.01905605 19 18 C19 23.61 19 29.22 19 35 C13.06 35 7.12 35 1 35 C1 40.61 1 46.22 1 52 C6.94 52 12.88 52 19 52 C19 64.21 19 76.42 19 89 C24.28 89 29.56 89 35 89 C35 82.73 35 76.46 35 70 C46.88 70 58.76 70 71 70 C71 70.33 71 70.66 71 71 C59.78 71 48.56 71 37 71 C37 76.61 37 82.22 37 88 C36.67 88.66 36.34 89.32 36 90 C33.02077407 90.02683987 30.04178705 90.04676037 27.0625 90.0625 C25.78729492 90.07506836 25.78729492 90.07506836 24.48632812 90.08789062 C23.67744141 90.09111328 22.86855469 90.09433594 22.03515625 90.09765625 C21.2862915 90.10289307 20.53742676 90.10812988 19.76586914 90.11352539 C18 90 18 90 17 89 C16.91152257 86.47905924 16.88472699 83.98569107 16.90234375 81.46484375 C16.9037587 80.71159317 16.90517365 79.95834259 16.90663147 79.18226624 C16.91224624 76.7673044 16.92480117 74.35243399 16.9375 71.9375 C16.9425131 70.30403779 16.94707634 68.67057414 16.95117188 67.03710938 C16.96137125 63.0246757 16.98094355 59.01244064 17 55 C12.05 55 7.1 55 2 55 C2 71.83 2 88.66 2 106 C-9.88 106 -21.76 106 -34 106 C-34 76.63 -34 47.26 -34 17 C-22.78 17 -11.56 17 0 17 C0 11.39 0 5.78 0 0 Z M-33 18 C-33 46.71 -33 75.42 -33 105 C-22.44 105 -11.88 105 -1 105 C-1 88.17 -1 71.34 -1 54 C-6.28 54 -11.56 54 -17 54 C-17 47.4 -17 40.8 -17 34 C-11.39 34 -5.78 34 0 34 C0 28.72 0 23.44 0 18 C-10.89 18 -21.78 18 -33 18 Z " fill="#1E3C71" transform="translate(299,316)"/>
<path d="M0 0 C11.55 0 23.1 0 35 0 C35 5.28 35 10.56 35 16 C52.82 16 70.64 16 89 16 C89 45.37 89 74.74 89 105 C76.79 105 64.58 105 52 105 C50 103 50 103 49.75949097 100.89926147 C49.76393219 100.03322296 49.76837341 99.16718445 49.77294922 98.27490234 C49.77310028 97.29403656 49.77325134 96.31317078 49.77340698 95.30258179 C49.78372955 94.24108917 49.79405212 93.17959656 49.8046875 92.0859375 C49.8075174 91.00116119 49.81034729 89.91638489 49.81326294 88.79873657 C49.82448422 85.32404687 49.84959238 81.84961218 49.875 78.375 C49.88502728 76.02344121 49.89415357 73.6718784 49.90234375 71.3203125 C49.92442993 65.5467763 49.9589731 59.77343143 50 54 C45.71 54 41.42 54 37 54 C37.06900513 55.52923096 37.06900513 55.52923096 37.1394043 57.08935547 C37.30571833 60.86453451 37.4519414 64.6402686 37.59204102 68.41650391 C37.65554996 70.05214345 37.72453859 71.68757965 37.79907227 73.32275391 C37.90514454 75.67058191 37.99161666 78.01843141 38.07421875 80.3671875 C38.11157639 81.10057343 38.14893402 81.83395935 38.18742371 82.58956909 C38.2487793 84.65185547 38.2487793 84.65185547 38 88 C34.1308371 90.57944193 30.9143521 90.25808937 26.4375 90.1875 C25.65697266 90.18685547 24.87644531 90.18621094 24.07226562 90.18554688 C18.28115414 90.14057707 18.28115414 90.14057707 16 89 C16 83.06 16 77.12 16 71 C5.44 71 -5.12 71 -16 71 C-16 75.62 -16 80.24 -16 85 C-16.33 85 -16.66 85 -17 85 C-17 79.72 -17 74.44 -17 69 C-5.45 69 6.1 69 18 69 C18 75.27 18 81.54 18 88 C23.61 88 29.22 88 35 88 C35 75.79 35 63.58 35 51 C40.28 51 45.56 51 51 51 C51 45.39 51 39.78 51 34 C45.72 34 40.44 34 35 34 C35 28.39 35 22.78 35 17 C23.45 17 11.9 17 0 17 C0 11.39 0 5.78 0 0 Z M52 17 C52 22.28 52 27.56 52 33 C58.27 33 64.54 33 71 33 C71 39.6 71 46.2 71 53 C65.06 53 59.12 53 53 53 C53 69.83 53 86.66 53 104 C64.22 104 75.44 104 87 104 C87 75.29 87 46.58 87 17 C75.45 17 63.9 17 52 17 Z " fill="#173362" transform="translate(54,317)"/>
<path d="M0 0 C5.28 0 10.56 0 16 0 C16 5.94 16 11.88 16 18 C22.27 18 28.54 18 35 18 C35 35.49 35 52.98 35 71 C29.06 71 23.12 71 17 71 C17 76.28 17 81.56 17 87 C16.67 87 16.34 87 16 87 C16 81.72 16 76.44 16 71 C4.78 71 -6.44 71 -18 71 C-18 76.28 -18 81.56 -18 87 C-18.33 87 -18.66 87 -19 87 C-19 81.39 -19 75.78 -19 70 C-7.45 70 4.1 70 16 70 C16 58.45 16 46.9 16 35 C10.72 35 5.44 35 0 35 C0 23.45 0 11.9 0 0 Z " fill="#030303" transform="translate(318,158)"/>
<path d="M0 0 C28.71 0 57.42 0 87 0 C87 5.94 87 11.88 87 18 C58.29 18 29.58 18 0 18 C0 12.06 0 6.12 0 0 Z " fill="#010101" transform="translate(266,527)"/>
<path d="M0 0 C4.95 0 9.9 0 15 0 C15 11.22 15 22.44 15 34 C9.72 34 4.44 34 -1 34 C-1 45.88 -1 57.76 -1 70 C-7.27 70 -13.54 70 -20 70 C-20 52.84 -20 35.68 -20 18 C-13.4 18 -6.8 18 0 18 C0 12.06 0 6.12 0 0 Z " fill="#060606" transform="translate(73,158)"/>
<path d="M0 0 C6.27 0 12.54 0 19 0 C19 5.61 19 11.22 19 17 C24.61 17 30.22 17 36 17 C36 23.27 36 29.54 36 36 C18.51 36 1.02 36 -17 36 C-17 29.73 -17 23.46 -17 17 C-11.39 17 -5.78 17 0 17 C0 11.39 0 5.78 0 0 Z " fill="#0A0A0A" transform="translate(194,140)"/>
<path d="M0 0 C17.16 0 34.32 0 52 0 C52 11.55 52 23.1 52 35 C46.72 35 41.44 35 36 35 C36 29.72 36 24.44 36 19 C24.12 19 12.24 19 0 19 C0 12.73 0 6.46 0 0 Z " fill="#060606" transform="translate(318,491)"/>
<path d="M0 0 C5.28 0 10.56 0 16 0 C16 10.89 16 21.78 16 33 C10.72 33 5.44 33 0 33 C0.01160156 34.28777344 0.02320312 35.57554687 0.03515625 36.90234375 C0.0445327 38.58072772 0.05363305 40.25911326 0.0625 41.9375 C0.07087891 42.78763672 0.07925781 43.63777344 0.08789062 44.51367188 C0.09272461 45.72700195 0.09272461 45.72700195 0.09765625 46.96484375 C0.10551147 48.08814087 0.10551147 48.08814087 0.11352539 49.23413086 C0 51 0 51 -1 52 C-6.94 52 -12.88 52 -19 52 C-19 40.12 -19 28.24 -19 16 C-12.73 16 -6.46 16 0 16 C0 10.72 0 5.44 0 0 Z " fill="#000001" transform="translate(37,265)"/>
<path d="M0 0 C5.61 0 11.22 0 17 0 C17.33 16.83 17.66 33.66 18 51 C23.94 51.33 29.88 51.66 36 52 C36 57.28 36 62.56 36 68 C29.73 68 23.46 68 17 68 C17 62.72 17 57.44 17 52 C11.39 52 5.78 52 0 52 C0 34.84 0 17.68 0 0 Z " fill="#000103" transform="translate(1,317)"/>
<path d="M0 0 C5.61 0 11.22 0 17 0 C17 22.11 17 44.22 17 67 C11.39 67 5.78 67 0 67 C0 44.89 0 22.78 0 0 Z " fill="#000000" transform="translate(336,89)"/>
<path d="M0 0 C5.61 0 11.22 0 17 0 C17 22.11 17 44.22 17 67 C11.39 67 5.78 67 0 67 C0 44.89 0 22.78 0 0 Z " fill="#000000" transform="translate(54,89)"/>
<path d="M0 0 C5.28 0 10.56 0 16 0 C16 5.28 16 10.56 16 16 C21.61 16 27.22 16 33 16 C33 27.88 33 39.76 33 52 C27.72 52 22.44 52 17 52 C16 51 16 51 15.88647461 49.14233398 C15.89171143 48.35157471 15.89694824 47.56081543 15.90234375 46.74609375 C15.90556641 45.89208984 15.90878906 45.03808594 15.91210938 44.15820312 C15.92048828 43.26037109 15.92886719 42.36253906 15.9375 41.4375 C15.94201172 40.53580078 15.94652344 39.63410156 15.95117188 38.70507812 C15.96299756 36.47002411 15.98093362 34.23500398 16 32 C10.72 32 5.44 32 0 32 C0 21.44 0 10.88 0 0 Z " fill="#010104" transform="translate(354,265)"/>
<path d="M0 0 C6.27 0 12.54 0 19 0 C19 0.33 19 0.66 19 1 C13.06 1 7.12 1 1 1 C1 6.94 1 12.88 1 19 C7.27 19 13.54 19 20 19 C20 29.89 20 40.78 20 52 C25.28 52 30.56 52 36 52 C36 46.72 36 41.44 36 36 C47.88 36 59.76 36 72 36 C72 41.28 72 46.56 72 52 C77.28 52 82.56 52 88 52 C88 52.33 88 52.66 88 53 C82.39 53 76.78 53 71 53 C71 47.72 71 42.44 71 37 C59.78 37 48.56 37 37 37 C37 41.95 37 46.9 37 52 C42.28 52 47.56 52 53 52 C53 58.27 53 64.54 53 71 C64.55 71 76.1 71 88 71 C88 71.33 88 71.66 88 72 C76.45 72 64.9 72 53 72 C53 77.28 53 82.56 53 88 C47.39 88 41.78 88 36 88 C36 82.72 36 77.44 36 72 C24.45 72 12.9 72 1 72 C1 77.28 1 82.56 1 88 C0.67 88 0.34 88 0 88 C0 82.39 0 76.78 0 71 C11.88 71 23.76 71 36 71 C36 65.06 36 59.12 36 53 C30.06 53 24.12 53 18 53 C18 42.11 18 31.22 18 20 C12.72 20 7.44 20 2 20 C2 31.22 2 42.44 2 54 C-3.61 54 -9.22 54 -15 54 C-14.98839844 55.28777344 -14.97679688 56.57554687 -14.96484375 57.90234375 C-14.9554673 59.58072772 -14.94636695 61.25911326 -14.9375 62.9375 C-14.92912109 63.78763672 -14.92074219 64.63777344 -14.91210938 65.51367188 C-14.90727539 66.72700195 -14.90727539 66.72700195 -14.90234375 67.96484375 C-14.89448853 69.08814087 -14.89448853 69.08814087 -14.88647461 70.23413086 C-15 72 -15 72 -16 73 C-21.94 73 -27.88 73 -34 73 C-34 89.5 -34 106 -34 123 C-34.33 123 -34.66 123 -35 123 C-35 106.17 -35 89.34 -35 72 C-29.06 71.67 -23.12 71.34 -17 71 C-16.67 65.06 -16.34 59.12 -16 53 C-10.72 53 -5.44 53 0 53 C0 42.11 0 31.22 0 20 C-5.28 20 -10.56 20 -16 20 C-16 19.67 -16 19.34 -16 19 C-10.72 19 -5.44 19 0 19 C0 12.73 0 6.46 0 0 Z " fill="#355C9D" transform="translate(53,245)"/>
<path d="M0 0 C11.22 0 22.44 0 34 0 C34 4.95 34 9.9 34 15 C28.06 15.33 22.12 15.66 16 16 C15.67 21.94 15.34 27.88 15 34 C4.44 34 -6.12 34 -17 34 C-17 28.39 -17 22.78 -17 17 C-11.72 16.67 -6.44 16.34 -1 16 C-0.67 10.72 -0.34 5.44 0 0 Z " fill="#6D6D6D" transform="translate(283,282)"/>
<path d="M0 0 C5.61 0 11.22 0 17 0 C17 6.6 17 13.2 17 20 C11.72 20 6.44 20 1 20 C1 25.28 1 30.56 1 36 C41.59 36 82.18 36 124 36 C124 30.72 124 25.44 124 20 C118.06 20 112.12 20 106 20 C106 13.73 106 7.46 106 1 C112.27 1 118.54 1 125 1 C125 6.94 125 12.88 125 19 C130.28 19 135.56 19 141 19 C141 19.33 141 19.66 141 20 C135.72 20 130.44 20 125 20 C125 25.28 125 30.56 125 36 C135.89 36 146.78 36 158 36 C158 36.33 158 36.66 158 37 C147.11 37 136.22 37 125 37 C125 42.94 125 48.88 125 55 C124.67 55 124.34 55 124 55 C124 49.06 124 43.12 124 37 C83.41 37 42.82 37 1 37 C1 42.94 1 48.88 1 55 C0.67 55 0.34 55 0 55 C0 49.06 0 43.12 0 37 C-11.55 37 -23.1 37 -35 37 C-35 36.67 -35 36.34 -35 36 C-23.45 36 -11.9 36 0 36 C0 30.72 0 25.44 0 20 C-5.28 20 -10.56 20 -16 20 C-16 19.67 -16 19.34 -16 19 C-10.72 19 -5.44 19 0 19 C0 12.73 0 6.46 0 0 Z " fill="#949494" transform="translate(141,209)"/>
<path d="M0 0 C6.27 0 12.54 0 19 0 C19 17.16 19 34.32 19 52 C12.73 52 6.46 52 0 52 C0 34.84 0 17.68 0 0 Z " fill="#03050A" transform="translate(387,317)"/>
<path d="M0 0 C17.49 0 34.98 0 53 0 C53 5.61 53 11.22 53 17 C35.51 17 18.02 17 0 17 C0 11.39 0 5.78 0 0 Z " fill="#F3F3F3" transform="translate(141,281)"/>
<path d="M0 0 C17.16 0 34.32 0 52 0 C52 5.61 52 11.22 52 17 C34.84 17 17.68 17 0 17 C0 11.39 0 5.78 0 0 Z " fill="#F5F5F5" transform="translate(213,281)"/>
<path d="M0 0 C11.55 0 23.1 0 35 0 C35 5.28 35 10.56 35 16 C23.45 16 11.9 16 0 16 C0 10.72 0 5.44 0 0 Z " fill="#00030D" transform="translate(318,317)"/>
<path d="M0 0 C11.55 0 23.1 0 35 0 C35 5.28 35 10.56 35 16 C23.45 16 11.9 16 0 16 C0 10.72 0 5.44 0 0 Z " fill="#00030D" transform="translate(54,317)"/>
<path d="M0 0 C11.55 0 23.1 0 35 0 C35 5.28 35 10.56 35 16 C23.45 16 11.9 16 0 16 C0 10.72 0 5.44 0 0 Z " fill="#040404" transform="translate(89,36)"/>
<path d="M0 0 C5.28 0 10.56 0 16 0 C16 11.22 16 22.44 16 34 C10.72 34 5.44 34 0 34 C0 22.78 0 11.56 0 0 Z " fill="#020202" transform="translate(318,53)"/>
<path d="M0 0 C11.22 0 22.44 0 34 0 C34 5.28 34 10.56 34 16 C22.78 16 11.56 16 0 16 C0 10.72 0 5.44 0 0 Z " fill="#020202" transform="translate(283,36)"/>
<path d="M0 0 C4.95 0 9.9 0 15 0 C15 11.22 15 22.44 15 34 C10.05 34 5.1 34 0 34 C0 22.78 0 11.56 0 0 Z " fill="#000000" transform="translate(73,53)"/>
<path d="M0 0 C52.14 0 104.28 0 158 0 C158 0.33 158 0.66 158 1 C106.19 1 54.38 1 1 1 C1 6.94 1 12.88 1 19 C52.81 19 104.62 19 158 19 C158 19.33 158 19.66 158 20 C106.19 20 54.38 20 1 20 C1 25.61 1 31.22 1 37 C-10.55 37 -22.1 37 -34 37 C-34 48.55 -34 60.1 -34 72 C-34.33 72 -34.66 72 -35 72 C-35 60.12 -35 48.24 -35 36 C-23.45 36 -11.9 36 0 36 C0 30.72 0 25.44 0 20 C-11.55 20 -23.1 20 -35 20 C-35 19.67 -35 19.34 -35 19 C-23.45 19 -11.9 19 0 19 C0 12.73 0 6.46 0 0 Z " fill="#939393" transform="translate(124,16)"/>
<path d="M0 0 C11.55 0 23.1 0 35 0 C35 28.71 35 57.42 35 87 C23.78 87 12.56 87 1 87 C1 70.17 1 53.34 1 36 C6.61 36 12.22 36 18 36 C18 36.33 18 36.66 18 37 C17.25234375 37.06058594 16.5046875 37.12117188 15.734375 37.18359375 C14.74953125 37.26738281 13.7646875 37.35117187 12.75 37.4375 C11.77546875 37.51871094 10.8009375 37.59992188 9.796875 37.68359375 C6.77228378 37.96346926 6.77228378 37.96346926 3 39 C3 54.18 3 69.36 3 85 C12.9 85 22.8 85 33 85 C33 57.61 33 30.22 33 2 C22.44 1.67 11.88 1.34 1 1 C1 5.62 1 10.24 1 15 C6.61 15 12.22 15 18 15 C18 15.33 18 15.66 18 16 C12.06 16 6.12 16 0 16 C0 10.72 0 5.44 0 0 Z " fill="#3C6BB8" transform="translate(106,334)"/>
<path d="M0 0 C0.33 0 0.66 0 1 0 C1.33 16.83 1.66 33.66 2 51 C7.94 51.33 13.88 51.66 20 52 C20 57.28 20 62.56 20 68 C13.73 68 7.46 68 1 68 C1 62.72 1 57.44 1 52 C-4.61 52 -10.22 52 -16 52 C-16 51.67 -16 51.34 -16 51 C-10.72 51 -5.44 51 0 51 C0 34.17 0 17.34 0 0 Z " fill="#090F1B" transform="translate(17,317)"/>
<path d="M0 0 C5.61 0 11.22 0 17 0 C17 17.16 17 34.32 17 52 C16.34 51.67 15.68 51.34 15 51 C15 34.83 15 18.66 15 2 C10.71 2 6.42 2 2 2 C2.06900513 3.52923096 2.06900513 3.52923096 2.1394043 5.08935547 C2.30571833 8.86453451 2.4519414 12.6402686 2.59204102 16.41650391 C2.65554996 18.05214345 2.72453859 19.68757965 2.79907227 21.32275391 C2.90514454 23.67058191 2.99161666 26.01843141 3.07421875 28.3671875 C3.11157639 29.10057343 3.14893402 29.83395935 3.18742371 30.58956909 C3.2487793 32.65185547 3.2487793 32.65185547 3 36 C-0.8691629 38.57944193 -4.0856479 38.25808937 -8.5625 38.1875 C-9.34302734 38.18685547 -10.12355469 38.18621094 -10.92773438 38.18554688 C-16.71884586 38.14057707 -16.71884586 38.14057707 -19 37 C-19 31.06 -19 25.12 -19 19 C-29.56 19 -40.12 19 -51 19 C-51 23.62 -51 28.24 -51 33 C-51.33 33 -51.66 33 -52 33 C-52 27.72 -52 22.44 -52 17 C-40.45 17 -28.9 17 -17 17 C-17 23.27 -17 29.54 -17 36 C-11.39 36 -5.78 36 0 36 C0 24.12 0 12.24 0 0 Z " fill="#051333" transform="translate(89,369)"/>
<path d="M0 0 C5.61 0 11.22 0 17 0 C17 6.6 17 13.2 17 20 C11.39 20 5.78 20 0 20 C0 13.4 0 6.8 0 0 Z " fill="#E7E7E7" transform="translate(177,209)"/>
<path d="M0 0 C0.33 0 0.66 0 1 0 C1 11.88 1 23.76 1 36 C-4.61 36 -10.22 36 -16 36 C-15.98839844 37.28777344 -15.97679687 38.57554687 -15.96484375 39.90234375 C-15.9554673 41.58072772 -15.94636695 43.25911326 -15.9375 44.9375 C-15.92912109 45.78763672 -15.92074219 46.63777344 -15.91210938 47.51367188 C-15.90888672 48.32255859 -15.90566406 49.13144531 -15.90234375 49.96484375 C-15.89710693 50.7137085 -15.89187012 51.46257324 -15.88647461 52.23413086 C-16 54 -16 54 -17 55 C-19.7388842 55.09516211 -22.45247941 55.12554594 -25.19165039 55.11352539 C-26.05011063 55.11367142 -26.90857086 55.11381744 -27.79304504 55.1139679 C-30.64460738 55.11326847 -33.49610525 55.1054747 -36.34765625 55.09765625 C-38.31920842 55.09579218 -40.29076105 55.09436822 -42.26231384 55.09336853 C-47.46226267 55.08954251 -52.66218375 55.07971152 -57.86212158 55.06866455 C-63.16393661 55.05845222 -68.4657561 55.05387129 -73.76757812 55.04882812 C-84.17839959 55.03808932 -94.58919315 55.02049185 -105 55 C-105 48.73 -105 42.46 -105 36 C-116.55 36 -128.1 36 -140 36 C-140 35.67 -140 35.34 -140 35 C-128.45 35 -116.9 35 -105 35 C-105 29.72 -105 24.44 -105 19 C-104.67 19 -104.34 19 -104 19 C-104 24.28 -104 29.56 -104 35 C-75.29 35 -46.58 35 -17 35 C-17 29.72 -17 24.44 -17 19 C-16.67 19 -16.34 19 -16 19 C-16 24.28 -16 29.56 -16 35 C-10.72 35 -5.44 35 0 35 C0 23.45 0 11.9 0 0 Z M-104 36 C-104 41.94 -104 47.88 -104 54 C-75.29 54 -46.58 54 -17 54 C-17 48.06 -17 42.12 -17 36 C-45.71 36 -74.42 36 -104 36 Z " fill="#8B8B8B" transform="translate(370,491)"/>
<path d="M0 0 C5.94 0 11.88 0 18 0 C18 5.94 18 11.88 18 18 C12.06 18 6.12 18 0 18 C0 12.06 0 6.12 0 0 Z " fill="#000005" transform="translate(106,351)"/>
<path d="M0 0 C5.94 0 11.88 0 18 0 C18 5.94 18 11.88 18 18 C12.06 18 6.12 18 0 18 C0 12.06 0 6.12 0 0 Z " fill="#FBFBFB" transform="translate(247,210)"/>
<path d="M0 0 C5.61 0 11.22 0 17 0 C17 5.94 17 11.88 17 18 C11.39 18 5.78 18 0 18 C0 12.06 0 6.12 0 0 Z " fill="#FCFCFC" transform="translate(195,298)"/>
<path d="M0 0 C0.33 0 0.66 0 1 0 C1 6.27 1 12.54 1 19 C-9.89 19 -20.78 19 -32 19 C-32 24.28 -32 29.56 -32 35 C-3.95 35 24.1 35 53 35 C53 29.39 53 23.78 53 18 C59.27 18 65.54 18 72 18 C72 12.06 72 6.12 72 0 C72.33 0 72.66 0 73 0 C73 6.27 73 12.54 73 19 C66.73 19 60.46 19 54 19 C54 24.28 54 29.56 54 35 C65.55 35 77.1 35 89 35 C89 35.33 89 35.66 89 36 C77.45 36 65.9 36 54 36 C54 41.94 54 47.88 54 54 C53.67 54 53.34 54 53 54 C53 48.06 53 42.12 53 36 C24.95 36 -3.1 36 -32 36 C-32 41.94 -32 47.88 -32 54 C-32.33 54 -32.66 54 -33 54 C-33 48.06 -33 42.12 -33 36 C-38.94 36 -44.88 36 -51 36 C-51 35.67 -51 35.34 -51 35 C-45.06 35 -39.12 35 -33 35 C-33 29.39 -33 23.78 -33 18 C-22.11 18 -11.22 18 0 18 C0 12.06 0 6.12 0 0 Z " fill="#787878" transform="translate(105,491)"/>
<path d="M0 0 C6.27 0 12.54 0 19 0 C19 11.88 19 23.76 19 36 C24.28 36 29.56 36 35 36 C35 29.73 35 23.46 35 17 C46.88 17 58.76 17 71 17 C71 17.33 71 17.66 71 18 C59.78 18 48.56 18 37 18 C37 23.61 37 29.22 37 35 C36.505 35.99 36.505 35.99 36 37 C33.02077407 37.02683987 30.04178705 37.04676037 27.0625 37.0625 C25.78729492 37.07506836 25.78729492 37.07506836 24.48632812 37.08789062 C23.67744141 37.09111328 22.86855469 37.09433594 22.03515625 37.09765625 C21.2862915 37.10289307 20.53742676 37.10812988 19.76586914 37.11352539 C18 37 18 37 17 36 C16.91152257 33.47905924 16.88472699 30.98569107 16.90234375 28.46484375 C16.9037587 27.71159317 16.90517365 26.95834259 16.90663147 26.18226624 C16.91224624 23.7673044 16.92480117 21.35243399 16.9375 18.9375 C16.9425131 17.30403779 16.94707634 15.67057414 16.95117188 14.03710938 C16.96137125 10.0246757 16.98094355 6.01244064 17 2 C12.05 2 7.1 2 2 2 C2 18.83 2 35.66 2 53 C1.34 53 0.68 53 0 53 C0 35.51 0 18.02 0 0 Z " fill="#071739" transform="translate(299,369)"/>
<path d="M0 0 C5.61 0 11.22 0 17 0 C17 5.61 17 11.22 17 17 C11.39 17 5.78 17 0 17 C0 11.39 0 5.78 0 0 Z " fill="#000107" transform="translate(300,299)"/>
<path d="M0 0 C5.28 0 10.56 0 16 0 C16 5.94 16 11.88 16 18 C10.72 18 5.44 18 0 18 C0 12.06 0 6.12 0 0 Z " fill="#000105" transform="translate(283,351)"/>
<path d="M0 0 C5.94 0 11.88 0 18 0 C18 5.28 18 10.56 18 16 C12.06 16 6.12 16 0 16 C0 10.72 0 5.44 0 0 Z " fill="#336DCB" transform="translate(299,317)"/>
<path d="M0 0 C5.94 0 11.88 0 18 0 C18 5.28 18 10.56 18 16 C12.06 16 6.12 16 0 16 C0 10.72 0 5.44 0 0 Z " fill="#050505" transform="translate(194,317)"/>
<path d="M0 0 C5.28 0 10.56 0 16 0 C16 5.94 16 11.88 16 18 C10.72 18 5.44 18 0 18 C0 12.06 0 6.12 0 0 Z " fill="#010002" transform="translate(90,298)"/>
<path d="M0 0 C5.28 0 10.56 0 16 0 C16 5.94 16 11.88 16 18 C10.72 18 5.44 18 0 18 C0 12.06 0 6.12 0 0 Z " fill="#FAFAFA" transform="translate(213,210)"/>
<path d="M0 0 C5.28 0 10.56 0 16 0 C16 5.94 16 11.88 16 18 C10.72 18 5.44 18 0 18 C0 12.06 0 6.12 0 0 Z " fill="#FBFBFB" transform="translate(142,210)"/>
<path d="M0 0 C5.61 0 11.22 0 17 0 C17 5.61 17 11.22 17 17 C3.375 17.125 3.375 17.125 0 16 C0 10.72 0 5.44 0 0 Z " fill="#070B14" transform="translate(370,369)"/>
<path d="M0 0 C5.61 0 11.22 0 17 0 C17 5.28 17 10.56 17 16 C11.39 16 5.78 16 0 16 C0 10.72 0 5.44 0 0 Z " fill="#00030E" transform="translate(300,334)"/>
<path d="M0 0 C5.61 0 11.22 0 17 0 C17 5.28 17 10.56 17 16 C11.39 16 5.78 16 0 16 C0 10.72 0 5.44 0 0 Z " fill="#3669BD" transform="translate(89,317)"/>
<path d="M0 0 C0.33 0 0.66 0 1 0 C1 10.89 1 21.78 1 33 C6.28 33 11.56 33 17 33 C17 27.72 17 22.44 17 17 C28.88 17 40.76 17 53 17 C53 22.28 53 27.56 53 33 C58.28 33 63.56 33 69 33 C69 33.33 69 33.66 69 34 C63.39 34 57.78 34 52 34 C52 28.72 52 23.44 52 18 C40.78 18 29.56 18 18 18 C18 22.95 18 27.9 18 33 C23.28 33 28.56 33 34 33 C34 33.33 34 33.66 34 34 C28.72 34 23.44 34 18 34 C18 39.94 18 45.88 18 52 C34.83 52 51.66 52 69 52 C69 52.33 69 52.66 69 53 C40.29 53 11.58 53 -18 53 C-18 58.28 -18 63.56 -18 69 C-18.33 69 -18.66 69 -19 69 C-19 63.39 -19 57.78 -19 52 C-7.12 52 4.76 52 17 52 C17 46.06 17 40.12 17 34 C11.39 34 5.78 34 0 34 C0 22.78 0 11.56 0 0 Z " fill="#29374D" transform="translate(72,264)"/>
<path d="M0 0 C6.27 0 12.54 0 19 0 C19 6.27 19 12.54 19 19 C24.28 19 29.56 19 35 19 C35 19.33 35 19.66 35 20 C29.72 20 24.44 20 19 20 C19 30.56 19 41.12 19 52 C24.28 52 29.56 52 35 52 C35.495 61.405 35.495 61.405 36 71 C41.28 71.33 46.56 71.66 52 72 C52 89.16 52 106.32 52 124 C46.39 124 40.78 124 35 124 C35 123.67 35 123.34 35 123 C40.28 123 45.56 123 51 123 C51 106.5 51 90 51 73 C45.72 73 40.44 73 35 73 C34 72 34 72 33.88647461 70.23413086 C33.89171143 69.48526611 33.89694824 68.73640137 33.90234375 67.96484375 C33.90556641 67.15595703 33.90878906 66.34707031 33.91210938 65.51367188 C33.92467773 64.2384668 33.92467773 64.2384668 33.9375 62.9375 C33.94201172 62.08349609 33.94652344 61.22949219 33.95117188 60.34960938 C33.96299627 58.23304337 33.98093231 56.11651315 34 54 C28.72 54 23.44 54 18 54 C18 42.78 18 31.56 18 20 C12.06 20 6.12 20 0 20 C0 19.67 0 19.34 0 19 C5.94 19 11.88 19 18 19 C18 13.06 18 7.12 18 1 C12.06 1 6.12 1 0 1 C0 0.67 0 0.34 0 0 Z " fill="#38527F" transform="translate(335,245)"/>
<path d="M0 0 C4.95 0 9.9 0 15 0 C15 5.28 15 10.56 15 16 C10.05 16 5.1 16 0 16 C0 10.72 0 5.44 0 0 Z " fill="#010004" transform="translate(90,334)"/>
<path d="M0 0 C17.49 0 34.98 0 53 0 C53 5.94 53 11.88 53 18 C52.67 18 52.34 18 52 18 C52 12.39 52 6.78 52 1 C35.17 1 18.34 1 1 1 C1 7.27 1 13.54 1 20 C-10.22 20 -21.44 20 -33 20 C-33 24.29 -33 28.58 -33 33 C-31.61494263 32.94670532 -31.61494263 32.94670532 -30.2019043 32.89233398 C-26.77479285 32.76308638 -23.34757614 32.63878076 -19.92016602 32.51782227 C-18.43702051 32.46446471 -16.95394439 32.40914027 -15.47094727 32.35180664 C-13.33885663 32.26972079 -11.20661621 32.19471999 -9.07421875 32.12109375 C-7.79119873 32.0739624 -6.50817871 32.02683105 -5.1862793 31.97827148 C-2 32 -2 32 1 33 C1 33.66 1 34.32 1 35 C-10.88 35 -22.76 35 -35 35 C-35 29.72 -35 24.44 -35 19 C-23.45 19 -11.9 19 0 19 C0 12.73 0 6.46 0 0 Z " fill="#141922" transform="translate(141,298)"/>
<path d="M0 0 C0.33 0 0.66 0 1 0 C1 22.77 1 45.54 1 69 C6.94 69 12.88 69 19 69 C19 69.33 19 69.66 19 70 C13.06 70 7.12 70 1 70 C1 75.94 1 81.88 1 88 C0.67 88 0.34 88 0 88 C0 82.06 0 76.12 0 70 C-5.28 70 -10.56 70 -16 70 C-16 81.55 -16 93.1 -16 105 C-16.33 105 -16.66 105 -17 105 C-17 93.12 -17 81.24 -17 69 C-11.39 69 -5.78 69 0 69 C0 46.23 0 23.46 0 0 Z " fill="#8F8F8F" transform="translate(334,88)"/>
<path d="M0 0 C5.61 0 11.22 0 17 0 C17 5.28 17 10.56 17 16 C23.27 16 29.54 16 36 16 C36.33 10.72 36.66 5.44 37 0 C37.33 0 37.66 0 38 0 C38 4.62 38 9.24 38 14 C48.89 14 59.78 14 71 14 C71 14.66 71 15.32 71 16 C59.78 16.33 48.56 16.66 37 17 C36.67 22.94 36.34 28.88 36 35 C35.67 35 35.34 35 35 35 C35 29.06 35 23.12 35 17 C28.73 17 22.46 17 16 17 C16 11.72 16 6.44 16 1 C10.72 1 5.44 1 0 1 C0 0.67 0 0.34 0 0 Z " fill="#5E78A6" transform="translate(1,369)"/>
<path d="M0 0 C11.55 0 23.1 0 35 0 C35.495 9.405 35.495 9.405 36 19 C41.28 19.33 46.56 19.66 52 20 C52 20.33 52 20.66 52 21 C49.20826945 21.02690104 46.41679652 21.04679053 43.625 21.0625 C42.8309375 21.07087891 42.036875 21.07925781 41.21875 21.08789062 C35.2265625 21.11328125 35.2265625 21.11328125 33 20 C33 14.06 33 8.12 33 2 C22.44 2 11.88 2 1 2 C1 6.62 1 11.24 1 16 C0.67 16 0.34 16 0 16 C0 10.72 0 5.44 0 0 Z " fill="#030D26" transform="translate(37,386)"/>
<path d="M0 0 C6.27 0 12.54 0 19 0 C19 0.33 19 0.66 19 1 C13.06 1 7.12 1 1 1 C1 6.94 1 12.88 1 19 C6.94 19 12.88 19 19 19 C19 30.22 19 41.44 19 53 C18.67 53 18.34 53 18 53 C18 42.11 18 31.22 18 20 C12.39 20 6.78 20 1 20 C1 30.89 1 41.78 1 53 C0.67 53 0.34 53 0 53 C0 42.11 0 31.22 0 20 C-5.28 20 -10.56 20 -16 20 C-16 19.67 -16 19.34 -16 19 C-10.72 19 -5.44 19 0 19 C0 12.73 0 6.46 0 0 Z " fill="#3F5476" transform="translate(53,245)"/>
<path d="M0 0 C5.61 0 11.22 0 17 0 C17 0.33 17 0.66 17 1 C11.72 1 6.44 1 1 1 C1 6.94 1 12.88 1 19 C6.28 19 11.56 19 17 19 C17 19.33 17 19.66 17 20 C11.72 20 6.44 20 1 20 C1 31.55 1 43.1 1 55 C0.67 55 0.34 55 0 55 C0 49.06 0 43.12 0 37 C-11.55 37 -23.1 37 -35 37 C-35 36.67 -35 36.34 -35 36 C-23.45 36 -11.9 36 0 36 C0 30.72 0 25.44 0 20 C-5.28 20 -10.56 20 -16 20 C-16 19.67 -16 19.34 -16 19 C-10.72 19 -5.44 19 0 19 C0 12.73 0 6.46 0 0 Z " fill="#757575" transform="translate(141,209)"/>
<path d="M0 0 C0.33 0 0.66 0 1 0 C1 5.94 1 11.88 1 18 C-5.27 18 -11.54 18 -18 18 C-18 28.89 -18 39.78 -18 51 C-23.28 51 -28.56 51 -34 51 C-34 45.72 -34 40.44 -34 35 C-33.67 35 -33.34 35 -33 35 C-33 39.62 -33 44.24 -33 49 C-31.040625 48.855625 -29.08125 48.71125 -27.0625 48.5625 C-25.96035156 48.48128906 -24.85820312 48.40007812 -23.72265625 48.31640625 C-21.08890097 48.29581916 -21.08890097 48.29581916 -20 47 C-19.85347285 44.79453974 -19.77250488 42.58466866 -19.71875 40.375 C-19.70034058 39.71290527 -19.68193115 39.05081055 -19.66296387 38.36865234 C-19.60405303 36.24586085 -19.55130076 34.12298826 -19.5 32 C-19.43253672 29.20815505 -19.35886935 26.41657895 -19.28125 23.625 C-19.25095703 22.37976563 -19.22066406 21.13453125 -19.18945312 19.8515625 C-19 17 -19 17 -18 16 C-16.65732587 15.91368126 -15.31025678 15.89293527 -13.96484375 15.90234375 C-13.15595703 15.90556641 -12.34707031 15.90878906 -11.51367188 15.91210938 C-10.66353516 15.92048828 -9.81339844 15.92886719 -8.9375 15.9375 C-8.08349609 15.94201172 -7.22949219 15.94652344 -6.34960938 15.95117188 C-4.23304337 15.96299627 -2.11651315 15.98093231 0 16 C0 10.72 0 5.44 0 0 Z " fill="#040B1C" transform="translate(352,246)"/>
<path d="M0 0 C11.55 0 23.1 0 35 0 C35 0.33 35 0.66 35 1 C23.78 1 12.56 1 1 1 C1.33 1.66 1.66 2.32 2 3 C2.28143346 5.16049925 2.50258999 7.32910846 2.6875 9.5 C2.79449219 10.6653125 2.90148437 11.830625 3.01171875 13.03125 C3 16 3 16 1 18 C-0.87939453 18.31884766 -0.87939453 18.31884766 -3.1328125 18.4140625 C-3.93847656 18.45273437 -4.74414062 18.49140625 -5.57421875 18.53125 C-6.83685547 18.57765625 -6.83685547 18.57765625 -8.125 18.625 C-8.97449219 18.66367187 -9.82398438 18.70234375 -10.69921875 18.7421875 C-12.79911684 18.83656494 -14.89952891 18.91937586 -17 19 C-16.67 23.62 -16.34 28.24 -16 33 C-11.05 33 -6.1 33 -1 33 C-1 33.33 -1 33.66 -1 34 C-6.61 34 -12.22 34 -18 34 C-18 28.39 -18 22.78 -18 17 C-12.06 17 -6.12 17 0 17 C0 11.39 0 5.78 0 0 Z " fill="#3C68B3" transform="translate(318,334)"/>
<path d="M0 0 C0.99 0.495 0.99 0.495 2 1 C2.19937616 4.64528348 2.38229958 8.29122228 2.5625 11.9375 C2.61857422 12.95908203 2.67464844 13.98066406 2.73242188 15.03320312 C3.02651964 21.17004306 2.85671026 26.91418417 2 33 C6.29 33.33 10.58 33.66 15 34 C15 28.39 15 22.78 15 17 C15.33 17 15.66 17 16 17 C16 23.27 16 29.54 16 36 C10.72 36 5.44 36 0 36 C0 24.12 0 12.24 0 0 Z " fill="#3861A6" transform="translate(318,369)"/>
<path d="M0 0 C5.94 0 11.88 0 18 0 C18 5.28 18 10.56 18 16 C12.06 16 6.12 16 0 16 C0 10.72 0 5.44 0 0 Z M2 2 C1.77119784 8.7058258 1.77119784 8.7058258 3 14 C6.96 14 10.92 14 15 14 C15.96070434 11.11788698 16.10581883 9.30149956 16.0625 6.3125 C16.041875 4.889375 16.02125 3.46625 16 2 C11.38 2 6.76 2 2 2 Z " fill="#3C68B3" transform="translate(299,317)"/>
<path d="M0 0 C5.28 0 10.56 0 16 0 C16 10.89 16 21.78 16 33 C14 31 14 31 13.77294922 28.11083984 C13.78342285 26.90637207 13.79389648 25.7019043 13.8046875 24.4609375 C13.81435547 22.50800781 13.81435547 22.50800781 13.82421875 20.515625 C13.84093071 19.13541405 13.85786061 17.75520571 13.875 16.375 C13.88502994 14.98698548 13.89415577 13.59896411 13.90234375 12.2109375 C13.92598137 8.80711974 13.95893133 5.40364494 14 2 C10.04 2.66 6.08 3.32 2 4 C1.67 13.24 1.34 22.48 1 32 C0.67 32 0.34 32 0 32 C0 21.44 0 10.88 0 0 Z " fill="#3D71C5" transform="translate(55,265)"/>
<path d="M0 0 C6.27 0 12.54 0 19 0 C19 0.33 19 0.66 19 1 C13.06 1 7.12 1 1 1 C1 11.89 1 22.78 1 34 C6.28 34 11.56 34 17 34 C17 28.39 17 22.78 17 17 C17.66 17 18.32 17 19 17 C19.02683987 19.97922593 19.04676037 22.95821295 19.0625 25.9375 C19.07087891 26.78763672 19.07925781 27.63777344 19.08789062 28.51367188 C19.09272461 29.72700195 19.09272461 29.72700195 19.09765625 30.96484375 C19.10551147 32.08814087 19.10551147 32.08814087 19.11352539 33.23413086 C19 35 19 35 18 36 C12.06 36 6.12 36 0 36 C0 24.12 0 12.24 0 0 Z " fill="#182439" transform="translate(18,281)"/>
<path d="M0 0 C0.33 0 0.66 0 1 0 C1 11.55 1 23.1 1 35 C6.94 35 12.88 35 19 35 C19 35.33 19 35.66 19 36 C13.06 36 7.12 36 1 36 C1 41.28 1 46.56 1 52 C0.67 52 0.34 52 0 52 C0 46.72 0 41.44 0 36 C-11.22 36 -22.44 36 -34 36 C-34 41.28 -34 46.56 -34 52 C-34.33 52 -34.66 52 -35 52 C-35 46.39 -35 40.78 -35 35 C-23.45 35 -11.9 35 0 35 C0 23.45 0 11.9 0 0 Z " fill="#797979" transform="translate(334,193)"/>
<path d="M0 0 C0.33 0 0.66 0 1 0 C1 5.94 1 11.88 1 18 C6.28 18 11.56 18 17 18 C17 18.33 17 18.66 17 19 C11.72 19 6.44 19 1 19 C1 24.28 1 29.56 1 35 C11.89 35 22.78 35 34 35 C34 35.33 34 35.66 34 36 C23.11 36 12.22 36 1 36 C1 41.94 1 47.88 1 54 C0.67 54 0.34 54 0 54 C0 42.45 0 30.9 0 19 C-5.94 19 -11.88 19 -18 19 C-18 18.67 -18 18.34 -18 18 C-12.06 18 -6.12 18 0 18 C0 12.06 0 6.12 0 0 Z " fill="#757575" transform="translate(265,210)"/>
<path d="M0 0 C5.61 0 11.22 0 17 0 C17 11.88 17 23.76 17 36 C11.72 36 6.44 36 1 36 C0 35 0 35 -0.11352539 33.14233398 C-0.10828857 32.35157471 -0.10305176 31.56081543 -0.09765625 30.74609375 C-0.09443359 29.89208984 -0.09121094 29.03808594 -0.08789062 28.15820312 C-0.07951172 27.26037109 -0.07113281 26.36253906 -0.0625 25.4375 C-0.05798828 24.53580078 -0.05347656 23.63410156 -0.04882812 22.70507812 C-0.03700225 20.46998686 -0.0205222 18.23502563 0 16 C0.66 16 1.32 16 2 16 C2 21.94 2 27.88 2 34 C6.62 34 11.24 34 16 34 C16 23.11 16 12.22 16 1 C10.72 1 5.44 1 0 1 C0 0.67 0 0.34 0 0 Z " fill="#192338" transform="translate(370,281)"/>
<path d="M0 0 C0.33 0 0.66 0 1 0 C1 11.55 1 23.1 1 35 C11.89 35 22.78 35 34 35 C34 40.61 34 46.22 34 52 C33.67 52 33.34 52 33 52 C33 46.72 33 41.44 33 36 C22.44 36 11.88 36 1 36 C1 41.28 1 46.56 1 52 C0.67 52 0.34 52 0 52 C0 46.72 0 41.44 0 36 C-5.94 36 -11.88 36 -18 36 C-18 35.67 -18 35.34 -18 35 C-12.06 35 -6.12 35 0 35 C0 23.45 0 11.9 0 0 Z " fill="#7D7D7D" transform="translate(72,193)"/>
<path d="M0 0 C0.33 0 0.66 0 1 0 C1 11.55 1 23.1 1 35 C-3.95 35 -8.9 35 -14 35 C-14 28.73 -14 22.46 -14 16 C-13.34 16.33 -12.68 16.66 -12 17 C-12 22.28 -12 27.56 -12 33 C-8.04 33 -4.08 33 0 33 C-0.03552979 32.03586182 -0.07105957 31.07172363 -0.10766602 30.07836914 C-0.23768547 26.51343688 -0.36096787 22.94829841 -0.48217773 19.38305664 C-0.5356662 17.8377441 -0.59100068 16.29249433 -0.64819336 14.74731445 C-0.72991433 12.53089949 -0.8050717 10.31434616 -0.87890625 8.09765625 C-0.90594131 7.4028566 -0.93297638 6.70805695 -0.96083069 5.99220276 C-1.01301108 4.32890224 -1.01185107 2.66407661 -1 1 C-0.67 0.67 -0.34 0.34 0 0 Z " fill="#406EBE" transform="translate(87,369)"/>
<path d="M0 0 C5.94 0 11.88 0 18 0 C18 5.94 18 11.88 18 18 C12.06 18 6.12 18 0 18 C0 12.06 0 6.12 0 0 Z M2 1 C2 5.95 2 10.9 2 16 C6.95 16 11.9 16 17 16 C17 11.05 17 6.1 17 1 C12.05 1 7.1 1 2 1 Z " fill="#010E2D" transform="translate(106,351)"/>
<path d="M0 0 C0.66 0 1.32 0 2 0 C2 10.89 2 21.78 2 33 C-3.61 33 -9.22 33 -15 33 C-15 32.34 -15 31.68 -15 31 C-10.38 30.67 -5.76 30.34 -1 30 C-0.67 20.1 -0.34 10.2 0 0 Z " fill="#020D26" transform="translate(51,265)"/>
<path d="M0 0 C5.28 0 10.56 0 16 0 C16 5.94 16 11.88 16 18 C10.72 18 5.44 18 0 18 C0 12.06 0 6.12 0 0 Z M1 1 C1 5.95 1 10.9 1 16 C5.29 16 9.58 16 14 16 C14.02685412 13.68756208 14.04632841 11.3750373 14.0625 9.0625 C14.07410156 7.77472656 14.08570313 6.48695313 14.09765625 5.16015625 C14.36532549 2.13701597 14.36532549 2.13701597 13 1 C10.98035801 0.92755947 8.95832876 0.91622812 6.9375 0.9375 C3.9984375 0.9684375 3.9984375 0.9684375 1 1 Z " fill="#010E2D" transform="translate(283,351)"/>
<path d="M0 0 C0.66 0.33 1.32 0.66 2 1 C2.39581 3.66055745 2.6519464 6.19910668 2.8125 8.875 C2.87630859 9.60847656 2.94011719 10.34195312 3.00585938 11.09765625 C3.35072442 16.43092134 3.35072442 16.43092134 1.7890625 18.96484375 C-5.12053074 22.9627525 -16.4029522 21.0691487 -24.18139648 20.96362305 C-25.01872314 20.95500244 -25.8560498 20.94638184 -26.71875 20.9375 C-27.47091797 20.92589844 -28.22308594 20.91429687 -28.99804688 20.90234375 C-31.20950737 20.92004139 -31.20950737 20.92004139 -34 22 C-34.33 21.01 -34.66 20.02 -35 19 C-23.78 19 -12.56 19 -1 19 C-0.67 12.73 -0.34 6.46 0 0 Z " fill="#3E72C8" transform="translate(354,316)"/>
<path d="M0 0 C5.28 0 10.56 0 16 0 C16 5.61 16 11.22 16 17 C7.585 17.495 7.585 17.495 -1 18 C-1 17.34 -1 16.68 -1 16 C3.62 15.67 8.24 15.34 13 15 C13.33 10.71 13.66 6.42 14 2 C9.71 2 5.42 2 1 2 C0.67 1.34 0.34 0.68 0 0 Z " fill="#3F6FBC" transform="translate(89,351)"/>
<path d="M0 0 C5.28 0 10.56 0 16 0 C16 5.94 16 11.88 16 18 C10.72 18 5.44 18 0 18 C0 12.06 0 6.12 0 0 Z M1 1 C0.979375 3.10375 0.95875 5.2075 0.9375 7.375 C0.92589844 8.55835938 0.91429688 9.74171875 0.90234375 10.9609375 C0.78533407 13.91921521 0.78533407 13.91921521 2 16 C2.969375 15.979375 3.93875 15.95875 4.9375 15.9375 C8 16 8 16 9 17 C10.98 17 12.96 17 15 17 C15 11.72 15 6.44 15 1 C10.38 1 5.76 1 1 1 Z " fill="#0B101D" transform="translate(90,298)"/>
<path d="M0 0 C4.95 0 9.9 0 15 0 C15 5.28 15 10.56 15 16 C10.05 16 5.1 16 0 16 C0 10.72 0 5.44 0 0 Z M1 2 C0.90148829 3.83115883 0.87027371 5.66619933 0.875 7.5 C0.87242188 8.5003125 0.86984375 9.500625 0.8671875 10.53125 C0.72129618 12.94399622 0.72129618 12.94399622 2 14 C4.01964199 14.07244053 6.04167124 14.08377188 8.0625 14.0625 C10.021875 14.041875 11.98125 14.02125 14 14 C14 9.71 14 5.42 14 1 C12.040625 0.979375 10.08125 0.95875 8.0625 0.9375 C6.40927734 0.92009766 6.40927734 0.92009766 4.72265625 0.90234375 C2.08552366 0.68737429 2.08552366 0.68737429 1 2 Z " fill="#000822" transform="translate(90,334)"/>
<path d="M0 0 C5.28 0 10.56 0 16 0 C13.31907309 2.68092691 11.60832637 2.38670257 7.875 2.625 C6.77929688 2.69976562 5.68359375 2.77453125 4.5546875 2.8515625 C3.71164062 2.90054687 2.86859375 2.94953125 2 3 C2.01160156 3.69867188 2.02320313 4.39734375 2.03515625 5.1171875 C2.04869141 6.48230469 2.04869141 6.48230469 2.0625 7.875 C2.07410156 8.77992188 2.08570313 9.68484375 2.09765625 10.6171875 C2 13 2 13 1 15 C2.2684375 14.7215625 2.2684375 14.7215625 3.5625 14.4375 C7.2773282 13.96470368 10.32974273 14.33935369 14 15 C14 15.33 14 15.66 14 16 C9.38 16 4.76 16 0 16 C0 10.72 0 5.44 0 0 Z " fill="#3E71C5" transform="translate(319,299)"/>
<path d="M0 0 C5.61 0 11.22 0 17 0 C17 4.95 17 9.9 17 15 C16.67 15 16.34 15 16 15 C15.67 13.02 15.34 11.04 15 9 C14.67 9 14.34 9 14 9 C14.33 6.69 14.66 4.38 15 2 C13.04174127 1.97305149 11.08337774 1.95362782 9.125 1.9375 C8.03445312 1.92589844 6.94390625 1.91429687 5.8203125 1.90234375 C3.04822454 1.80255697 3.04822454 1.80255697 1 3 C0.67 2.01 0.34 1.02 0 0 Z " fill="#00071A" transform="translate(19,370)"/>
<path d="M0 0 C1.01126953 0.23009766 1.01126953 0.23009766 2.04296875 0.46484375 C5.46877952 1.08483857 8.83893447 1.3352574 12.3125 1.5625 C13.56675781 1.64628906 14.82101563 1.73007812 16.11328125 1.81640625 C17.54220703 1.90728516 17.54220703 1.90728516 19 2 C19 2.66 19 3.32 19 4 C12.73 4 6.46 4 0 4 C0 2.68 0 1.36 0 0 Z " fill="#020D24" transform="translate(54,260)"/>
<path d="M0 0 C0.66 0.33 1.32 0.66 2 1 C2.39581 3.66055745 2.6519464 6.19910668 2.8125 8.875 C2.87630859 9.60847656 2.94011719 10.34195312 3.00585938 11.09765625 C3.35642941 16.51914773 3.35642941 16.51914773 1.51171875 19.0078125 C1.01285156 19.33523438 0.51398438 19.66265625 0 20 C-0.66 19.67 -1.32 19.34 -2 19 C-1.67 18.34 -1.34 17.68 -1 17 C-0.76725791 14.12089412 -0.58027243 11.25853505 -0.4375 8.375 C-0.39431641 7.57320313 -0.35113281 6.77140625 -0.30664062 5.9453125 C-0.20048543 3.9637489 -0.09973145 1.98189729 0 0 Z " fill="#3E6BB9" transform="translate(354,316)"/>
</svg>
